<svg height="76.942" viewBox="0 0 201 76.942" width="201" xmlns="http://www.w3.org/2000/svg" xmlns:xlink="http://www.w3.org/1999/xlink"><linearGradient id="a" gradientUnits="objectBoundingBox" x2="1" y1=".5" y2=".5"><stop offset=".003" stop-color="#009ee2"/><stop offset="1" stop-color="#93c01f"/></linearGradient><path d="m-6133.641 1307.689a19.7 19.7 0 0 1 -20.059-19.989v-.144a19.9 19.9 0 0 1 20.2-20.131 19.7 19.7 0 0 1 20.063 19.986v.145a19.9 19.9 0 0 1 -20.204 20.133zm9.789-20.13c0-5.7-3.957-10.679-9.789-10.679-6.039 0-9.648 4.834-9.648 10.534v.145c0 5.7 3.957 10.679 9.787 10.679 6.04 0 9.65-4.836 9.65-10.535z" fill="#009ee2" transform="translate(6194.316 -1267.428)"/><path d="m-6119.289 1306.658v-7.72l18.361-22.079h-17.713v-8.875h31.35v7.721l-20.059 22.078h20.059v8.875z" fill="#75838e" transform="translate(6204.529 -1267.263)"/><path d="m-6089.219 1306.658v-7.72l18.361-22.079h-17.711v-8.875h31.35v7.721l-20.061 22.078h20.061v8.875z" fill="#75838e" transform="translate(6213.453 -1267.263)"/><path d="m-6041.008 1307.689a19.7 19.7 0 0 1 -20.061-19.986v-.144a19.9 19.9 0 0 1 20.2-20.131 19.7 19.7 0 0 1 20.063 19.986v.145a19.9 19.9 0 0 1 -20.202 20.13zm9.789-20.13c0-5.7-3.958-10.679-9.789-10.679-6.039 0-9.649 4.834-9.649 10.534v.145c0 5.7 3.958 10.679 9.788 10.679 6.04 0 9.65-4.836 9.65-10.535z" fill="#93c01f" transform="translate(6221.807 -1267.428)"/><path d="m-6162.187 1267.984v14.9h-11.867v-14.9h-10.967v38.674h10.967v-14.9h11.867v14.9h10.968v-38.674z" fill="#75838e" transform="translate(6185.021 -1267.263)"/><path d="m-6081.028 1334.455a60.671 60.671 0 0 1 -51.387-28.23l8.459-5.388a50.682 50.682 0 0 0 42.928 23.588 50.685 50.685 0 0 0 42.927-23.588l8.459 5.388a60.669 60.669 0 0 1 -51.386 28.23z" fill="url(#a)" transform="translate(6200.633 -1257.513)"/></svg>