<svg enable-background="new 0 0 512 512" height="512" viewBox="0 0 58 58" width="512" xmlns="http://www.w3.org/2000/svg"><g fill="none" transform="translate(-1 -1)" xmlns="http://www.w3.org/2000/svg"><path d="m52.89 23.52-32.75 5.94-15.85 2.87 2.15-23.46c.07739096-.90548403.74743446-1.64906888 1.64-1.82l27.25-5.05 5.2-.97c.8904062-.15792245 1.7760031.30127596 2.16 1.12l.9 1.89.89 1.87 3.46 7.25.9 1.87z" fill="#73bccd"/><path d="m52.89 23.52-32.75 5.94c.8557094-10.9187929 6.3951795-20.93287125 15.19-27.46l5.2-.97c.8904062-.15792245 1.7760031.30127596 2.16 1.12l.9 1.89.89 1.87 3.46 7.25.9 1.87z" fill="#40b1d3"/><g fill="#009ee2"><path d="m44.48 5.91-6.69 5.59c-.3947594.3283965-.8659502.5519542-1.37.65l-4.41.82c-.0629727.0083152-.1265024.0116589-.19.01-.5101582-.0092771-.9315163-.4011519-.9777115-.909299s.2975894-.9695803.7977115-1.070701l4.42-.82c.165528-.0302477.3204929-.1025647.45-.21l7.08-5.93z"/><path d="m48.84 15.03-7.66 1.42c-.1290655.024621-.2516371.0756925-.36.15l-6.02 4.06c-.1640359.114371-.3600664.1738802-.56.17-.4403997.0009866-.8296015-.2862564-.9584701-.7073807-.1288687-.4211244.0329363-.8769815.3984701-1.1226193l6.02-4.06c.3370937-.2299011.718628-.3866027 1.12-.46l7.12-1.32z"/><path d="m25.873 15.358-2.828-1.245c-.6085682-.2695283-1.3118134-.2154325-1.872.144l-2.856 1.826-.678-3.852 2.142-1.2c.4815923-.2708957.6523957-.8809077.3815-1.3625s-.8809077-.65239567-1.3625-.3815l-2.141 1.2c-.7526196.422884-1.1541746 1.27659-1 2.126l.592 3.32-2.212-1.133c-.5903665-.3008678-1.2919969-.2869852-1.87.037l-2.315 1.295c-.31189287.1743456-.5070815.5018405-.51204021.8591204-.00495871.35728.18106585.6900657.48800001.873.3069342.1829344.6881473.1882252 1.0000402.0138796l2.3-1.3 2.339 1.192-3.549 1.992c-.4660084.2588043-.8094214.6929303-.954 1.206l-1.137 3.974c-.07338745.2552767-.04219955.5292623.08668353.7615145.12888307.2322522.34487117.403687.60031647.4764855.0895615.0248757.1820487.0376558.275.038.4462082-.0001982.8382928-.2959957.961-.725l1.148-3.985 4.229-2.365 1.1 2.47c.2022418.457529.5676685.8233121 1.025 1.026l2.957 1.3c.328281.152151.713146.1151013 1.0063732-.0968801s.4490734-.5658256.4075179-.9252578c-.0415554-.3594321-.2740298-.668381-.6078911-.8078621l-2.969-1.309-1.193-2.689 3.382-2.171 2.829 1.246c.326898.1441567.7058709.1029649.9941633-.1080587.2882923-.2110237.4421057-.5598197.4035-.915-.0386057-.3551804-.2637653-.6627846-.5906633-.8069413z"/></g><path d="m1.034 35.229 2.552 14.109c.08412253.5171452.37048733.9795933.79594778 1.2853696.42546045.3057762.95507301.4297668 1.47205222.3446304l51.561-9.432c1.0703087-.2165134 1.7638604-1.2579588 1.551-2.329l-2.552-14.107c-.1625308-.9825754-1.0254484-1.6943436-2.021-1.667-17.6975146.8383905-35.2033879 4.0401102-52.052 9.52-.94215018.326741-1.49966274 1.2975892-1.307 2.276z" fill="#93c01f"/><path d="m55.65 41.86 1.05 5.719c.1942031 1.084835-.5257895 2.1223399-1.61 2.32l-5.91 1.07c-1.0874513.1962751-2.1289891-.5234141-2.33-1.61l-1.04-5.7 4.19-1.659z" fill="#2c3e50"/><path d="m57.41 41.54-51.56 9.43c-.51593471.0841883-1.0441657-.040354-1.46815282-.3461501-.42398713-.305796-.70888814-.7677161-.79184718-1.2838499l-.54-2.97 2.45-.45 3.94-.72 48.99-8.96.54 2.97c.2026717 1.0721812-.4914606 2.1089301-1.56 2.33z" fill="#35495e"/><ellipse cx="9.498" cy="38.444" fill="#f0c419" rx="2.502" ry="2.492"/><ellipse cx="49.53" cy="30.996" fill="#f0c419" rx="2.502" ry="2.492"/><path d="m41.079 34.918-21.662 3.926c-1.0843701.199542-2.1256913-.5161426-2.328-1.6l-.358-1.962c-.0946134-.5212372.0220783-1.0586993.3243219-1.4937725.3022435-.4350732.7651928-.7319916 1.2866781-.8252275l21.658-3.93c1.0856502-.1987144 2.1270582.5195752 2.327 1.605l.363 1.962c.1929351 1.0844613-.5273082 2.1207889-1.611 2.318z" fill="#35495e"/><g fill="#3f5c6c"><path d="m24.722 41.051c-.482922-.0004101-.8965571-.3458774-.983-.821l-1.839-10.05c-.0994112-.5434482.2605518-1.0645887.804-1.164.5434482-.0994112 1.0645887.2605518 1.164.804l1.835 10.051c.0991563.5418362-.2585359 1.0618312-.8 1.163-.0596352.0115515-.1202568.0172453-.181.017z"/><path d="m36.392 38.11c-.4826076-.0003217-.8961307-.3452749-.983-.82l-1.655-9.062c-.0994112-.5434482.2605518-1.0645887.804-1.164.5434482-.0994112 1.0645887.2605518 1.164.804l1.655 9.063c.0991563.5418362-.2585359 1.0618312-.8 1.163-.0610482.0109748-.122974.0163306-.185.016z"/><path d="m30.646 40.064c-.4826076-.0003217-.8961307-.3452749-.983-.82l-1.832-10.03c-.0884315-.5380083.2704105-1.0476961.8067297-1.1458531.5363192-.0981571 1.0524199.2513988 1.1602703.7858531l1.832 10.031c.0991563.5418362-.2585359 1.0618312-.8 1.163-.0606414.0114919-.1222852.0168522-.184.016z"/></g><rect fill="#75838e" height="8" rx="2" width="58" x="1" y="51"/></g></svg>