<svg height="9.272" viewBox="0 0 15 9.272" width="15" xmlns="http://www.w3.org/2000/svg"><g fill="#009ee2"><path d="m4129.467-481.8-13.652 7.924a.674.674 0 0 1 -.922-.241.673.673 0 0 1 .241-.922l13.651-7.924a.674.674 0 0 1 .922.241.674.674 0 0 1 -.24.922z" transform="translate(-4114.8 483.053)"/><path d="m4124.256-473.129 2.721-1.571c0-.058-.017-.112-.017-.17a3.1 3.1 0 0 1 3.1-3.1 3.083 3.083 0 0 1 1.7.51l1.453-.839a8.1 8.1 0 0 0 -3.073-.773 7.75 7.75 0 0 0 -6.384 3.437 1.556 1.556 0 0 0 -.112 1.629 5.267 5.267 0 0 0 .612.877z" transform="translate(-4122.562 479.489)"/><path d="m4164.106-454.655-2.574 1.486c0 .058.017.112.017.17a3.1 3.1 0 0 1 -3.1 3.1 3.083 3.083 0 0 1 -1.7-.511l-1.593.92a9.85 9.85 0 0 0 3.292.692 7.854 7.854 0 0 0 6.248-3.113 1.73 1.73 0 0 0 -.051-2.144c-.175-.213-.356-.412-.539-.6z" transform="translate(-4150.947 457.617)"/></g></svg>