<svg height="76.942" viewBox="0 0 160.385 76.942" width="160.385" xmlns="http://www.w3.org/2000/svg"><g fill="#fff"><path d="m-6133.641 1307.689a19.7 19.7 0 0 1 -20.059-19.989v-.144a19.9 19.9 0 0 1 20.2-20.131 19.7 19.7 0 0 1 20.063 19.986v.145a19.9 19.9 0 0 1 -20.204 20.133zm9.789-20.13c0-5.7-3.957-10.679-9.789-10.679-6.039 0-9.648 4.834-9.648 10.534v.145c0 5.7 3.957 10.679 9.787 10.679 6.04 0 9.65-4.836 9.65-10.535z" transform="translate(6153.701 -1267.428)"/><path d="m-6041.008 1307.689a19.7 19.7 0 0 1 -20.061-19.986v-.144a19.9 19.9 0 0 1 20.2-20.131 19.7 19.7 0 0 1 20.063 19.986v.145a19.9 19.9 0 0 1 -20.202 20.13zm9.789-20.13c0-5.7-3.958-10.679-9.789-10.679-6.039 0-9.649 4.834-9.649 10.534v.145c0 5.7 3.958 10.679 9.788 10.679 6.04 0 9.65-4.836 9.65-10.535z" transform="translate(6181.193 -1267.428)"/><path d="m-6081.028 1334.455a60.671 60.671 0 0 1 -51.387-28.23l8.459-5.388a50.682 50.682 0 0 0 42.928 23.588 50.685 50.685 0 0 0 42.927-23.588l8.459 5.388a60.669 60.669 0 0 1 -51.386 28.23z" transform="translate(6160.019 -1257.513)"/></g></svg>