<svg enable-background="new 0 0 512 512" viewBox="0 0 512 512" xmlns="http://www.w3.org/2000/svg"><path d="m235.1 235.3v245.3l20.9 31.4v-276.7z"/><path d="m256 235.3v276.7l20.9-31.4v-245.3z" fill="#1e1e1e"/><path d="m376.3 120.3c0 66.5-53.9 120.3-120.3 120.3-55.6 0-102.4-37.7-116.1-88.9-2.7-10-4.1-20.4-4.1-31.3-.1-66.5 53.8-120.4 120.2-120.4 37.2 0 70.5 16.9 92.5 43.5 17.4 20.8 27.8 47.6 27.8 76.8z"/><path d="m287.6 56.3c1-8.8-5.7-16.7-14.4-18.4-21.1-4.2-72.7-7.9-95.3 48 0 0-5.5 14.4 10.4 12.6 7.7-.9 14.5-5.1 19.3-11.1 7.8-9.8 26.4-25.7 60.9-18.2 8.1 1.8 16.8-2.7 18.8-10.8.1-.7.3-1.4.3-2.1z" fill="#e1e6e9"/></svg>