<svg height="9.558" viewBox="0 0 15 9.558" width="15" xmlns="http://www.w3.org/2000/svg"><g fill="#93c01f"><path d="m3916.258-475.493a9.661 9.661 0 0 0 -6.957-3.581 8.812 8.812 0 0 0 -7.258 3.908 1.769 1.769 0 0 0 -.127 1.852c2.059 3.8 7.3 3.8 7.3 3.8a8.93 8.93 0 0 0 7.1-3.539 1.966 1.966 0 0 0 -.058-2.44zm-7.046 4.725a3.527 3.527 0 0 1 -3.527-3.527 3.527 3.527 0 0 1 3.527-3.527 3.527 3.527 0 0 1 3.527 3.527 3.527 3.527 0 0 1 -3.527 3.527z" transform="translate(-3901.712 479.075)"/><circle cx="7.5" cy="4.78" r="1.726"/></g></svg>