<svg height="16" viewBox="0 0 16 16" width="16" xmlns="http://www.w3.org/2000/svg" xmlns:xlink="http://www.w3.org/1999/xlink"><clipPath id="a"><path d="m0 0h8v16h-8z"/></clipPath><g><g clip-path="url(#a)"><path d="m7.052 2.82a1 1 0 0 1 1.9 0l.83 2.468a1 1 0 0 0 .921.681l2.585.069a1 1 0 0 1 .6 1.778l-2.137 1.72a1 1 0 0 0 -.335 1.05l.747 2.646a1 1 0 0 1 -1.549 1.082l-2.028-1.468a1 1 0 0 0 -1.172 0l-2.028 1.468a1 1 0 0 1 -1.549-1.082l.747-2.646a1 1 0 0 0 -.335-1.05l-2.133-1.719a1 1 0 0 1 .6-1.778l2.584-.07a1 1 0 0 0 .921-.681z" fill="#93c01f"/></g><g fill="none"><path d="m7.052 2.82a1 1 0 0 1 1.9 0l.83 2.468a1 1 0 0 0 .921.681l2.585.069a1 1 0 0 1 .6 1.778l-2.137 1.72a1 1 0 0 0 -.335 1.05l.747 2.646a1 1 0 0 1 -1.549 1.082l-2.028-1.468a1 1 0 0 0 -1.172 0l-2.028 1.468a1 1 0 0 1 -1.549-1.082l.747-2.646a1 1 0 0 0 -.335-1.05l-2.133-1.719a1 1 0 0 1 .6-1.778l2.584-.07a1 1 0 0 0 .921-.681z"/><path d="m7.99999046 3.13864422h.00000954l-.82950974 2.46786976c-.26628971.79222011-1.00653934 1.33959007-1.84202957 1.36205959l-2.58473014.0694809c-.00000287 0-.00000573 0-.00000859 0 0 0 0 0-.00000191 0l2.13317013 1.7188797c.62506008.50365924.88801003 1.32826995.66987992 2.10080051l-.74710942 2.64600945 2.02787018-1.4673996c.34327984-.24841118.74871922-.37971115 1.17246914-.37971115.42373085 0 .82916069.13129997 1.17246056.37971115l2.02785968 1.46737957c.00000191.00000095.00000286.00000191.00000477.00000286.00000382-.00000191.00000763-.00000477.00001526.00000667l-.74711037-2.64599895c-.21813011-.77253056.04482079-1.59714127.66987038-2.10080051l2.13317871-1.71887875c0-.00000095 0-.00000095.00000191-.00000095l-2.58475113-.0694809c-.83547974-.02246952-1.57572937-.56983948-1.84201908-1.36205959zm.00000859-1c.39759922 0 .79519653.22712993.94788074.68138981l.82952118 2.46786976c.13369942.39776992.50152016.66975021.92100906.68103027l2.58474064.06947994c.92980004.02499962 1.32483006 1.19470978.60056973 1.77830982l-2.13318062 1.71888066c-.31200981.25140953-.44381905.66477966-.33493996 1.05039978l.74711037 2.64599991c.19529057.69163513-.35412598 1.27580452-.96595001 1.27580452-.19527245 0-.39682198-.05945969-.58264923-.19392491l-2.02788067-1.4673996c-.17491436-.12656498-.38057232-.18984699-.58623028-.18984699-.20565701 0-.41131496.06328201-.58622932.18984699l-2.02788067 1.4673996c-.18577957.13443089-.38742256.19392491-.58264828.19392491-.61188412 0-1.16125774-.58411313-.96595097-1.27580452l.74710942-2.64599991c.10888004-.38562012-.02293015-.79899025-.33493996-1.05039978l-2.13317966-1.71888066c-.72426033-.58360004-.32923031-1.7533102.60056972-1.77830982l2.58474064-.06947994c.41947937-.01128006.78730965-.28326035.92101002-.68103027l.82950973-2.46786976c.15268994-.45425988.55029011-.68138981.94788838-.68138981z" fill="#93c01f"/></g></g></svg>